:SAMPLES-PER-SECOND 30
:FULLY-SPECIFIED
:DEGREES
78
root  -8.41071 37.1714 34.5421 -15.4478 6.14349 -3.42097
RightUpLeg  -16.2906 -9.57722 -7.43527
RightLeg  22.5388 -5.49005 -2.69449
RightFoot  16.4331 -5.75143 23.3018
RightToes  -5.82094e-011 -1.98785e-016 -5.10186e-018
Spine  23.092 0.448721 -8.35284
Spine1  2.3728 -3.17534 8.16273
HEad  -0.176936 -6.30534 9.45804
LeftShoulder1  1.54721 -2.40171 -19.7274
LeftArm  -25.2127 18.2872 -43.2676
LeftForeArm  102.564 -79.1452 -45.1114
LeftHand  -0.382551 0.64246 9.44743
RightShoulder  4.12365 7.28361 32.3388
RightArm  -7.48023 -16.944 36.6456
RightForeArm  20.6387 36.6731 7.10388
RightHand  -2.27255 9.27542 -18.2027
LeftUpLeg  -7.7405 6.36916 1.44495
LeftLeg  58.1093 -2.32143 -3.50816
LeftFoot  -3.83079 0.0771136 -1.18403
LeftToes  -8.4584e-011 5.90861e-011 8.40072e-012
79
root  -7.99206 36.66 32.194 -17.5504 -0.234815 -2.11871
RightUpLeg  -19.0937 -7.52957 -7.68677
RightLeg  38.4933 -4.59096 -4.24276
RightFoot  11.0904 -3.04791 15.707
RightToes  -5.82094e-011 -1.98785e-016 -5.10186e-018
Spine  24.8665 1.57475 -8.89265
Spine1  3.1167 -2.05924 5.6172
HEad  -4.06757 -3.19892 6.96236
LeftShoulder1  1.38896 -1.72132 -20.0745
LeftArm  -25.6556 22.3187 -41.1621
LeftForeArm  113.196 -80.6024 -55.7381
LeftHand  -0.325042 2.2254 11.6449
RightShoulder  3.97053 7.05748 31.687
RightArm  -7.5076 -12.9759 33.7058
RightForeArm  23.1359 41.8322 8.52138
RightHand  -2.4888 8.38882 -21.0643
LeftUpLeg  -1.8298 7.50883 -1.07395
LeftLeg  48.9315 -0.612634 -0.431561
LeftFoot  -18.0957 0.0998444 -0.930637
LeftToes  -8.4584e-011 5.90861e-011 8.40072e-012
80
root  -7.56201 36.3077 29.8564 -17.5003 -5.29207 -0.439448
RightUpLeg  -22.6355 -7.84517 -8.50872
RightLeg  54.863 -5.27943 -8.61496
RightFoot  7.62367 -1.82774 11.3207
RightToes  -5.82094e-011 -1.98785e-016 -5.10186e-018
Spine  24.0853 2.77269 -11.2001
Spine1  4.21282 -1.75172 5.85128
HEad  -7.21309 -0.419288 5.14635
LeftShoulder1  1.09023 -0.666107 -19.8379
LeftArm  -26.2011 27.7132 -41.1388
LeftForeArm  140.314 -82.1795 -83.0692
LeftHand  -0.34019 2.70722 14.4709
RightShoulder  3.56516 6.39997 30.095
RightArm  -8.01157 -8.66712 31.853
RightForeArm  30.5941 48.1629 10.2457
RightHand  -2.64723 8.61393 -22.0068
LeftUpLeg  -2.54463 11.9254 -3.19755
LeftLeg  42.9951 3.40233 3.8747
LeftFoot  -22.6256 0.438581 3.32259
LeftToes  -8.4584e-011 5.90861e-011 8.40072e-012
81
root  -7.08527 36.6312 27.5047 -16.2979 -8.62281 0.999863
RightUpLeg  -22.9011 -10.1328 -9.41317
RightLeg  66.052 -6.17133 -15.3131
RightFoot  7.29785 -1.62046 10.1568
RightToes  -5.82094e-011 -1.98785e-016 -5.10186e-018
Spine  22.6284 2.95138 -13.4378
Spine1  5.25604 -2.71296 8.12891
HEad  -7.24601 2.7677 4.03068
LeftShoulder1  0.766295 0.810559 -21.9693
LeftArm  -26.9799 31.4056 -40.6659
LeftForeArm  157.684 -81.9471 -103.602
LeftHand  -0.354029 2.83594 15.8596
RightShoulder  3.4388 6.33082 29.0333
RightArm  -7.35681 -3.78231 31.6301
RightForeArm  34.4832 52.4022 11.7928
RightHand  -2.76141 8.81946 -22.6157
LeftUpLeg  -6.61883 16.0504 -4.65214
LeftLeg  39.0339 3.14854 3.20328
LeftFoot  -16.4157 0.314355 5.33929
LeftToes  -8.4584e-011 5.90861e-011 8.40072e-012
82
root  -6.37623 37.6014 25.2094 -16.7412 -12.9189 1.45785
RightUpLeg  -17.1942 -11.0209 -9.40628
RightLeg  69.8161 -5.49167 -16.8899
RightFoot  7.80596 -1.46395 9.00201
RightToes  -5.82094e-011 -1.98785e-016 -5.10186e-018
Spine  23.241 2.06345 -7.89546
Spine1  4.2897 -1.0468 2.22958
HEad  -3.29614 3.13915 3.34006
LeftShoulder1  0.938162 0.168993 -21.7556
LeftArm  -28.096 33.3266 -44.3127
LeftForeArm  161.78 -81.8976 -105.917
LeftHand  -0.469413 1.52635 14.0893
RightShoulder  3.4228 6.43443 28.4957
RightArm  -7.05928 -3.87796 33.6745
RightForeArm  32.8335 55.6053 13.646
RightHand  -2.48068 7.19966 -22.8761
LeftUpLeg  -6.30894 20.8472 -4.4696
LeftLeg  30.2355 2.18241 1.80001
LeftFoot  -5.65925 -0.281297 6.54164
LeftToes  -8.4584e-011 5.90861e-011 8.40072e-012
83
root  -5.60157 38.7861 22.9496 -15.1663 -18.3711 0.368199
RightUpLeg  -11.2679 -10.7195 -7.47215
RightLeg  67.7298 -4.5477 -12.8854
RightFoot  10.116 -1.4647 8.05284
RightToes  -5.82094e-011 -1.98785e-016 -5.10186e-018
Spine  22.8193 0.770756 1.51476
Spine1  1.95846 1.73015 -6.03041
HEad  3.11178 3.23456 2.27419
LeftShoulder1  0.879393 0.370178 -21.6899
LeftArm  -27.6702 34.0458 -48.8979
LeftForeArm  167.979 -81.77 -110.1
LeftHand  -0.495966 0.153126 11.0528
RightShoulder  3.48837 6.93681 27.4282
RightArm  -4.64859 -6.61564 35.8478
RightForeArm  32.7427 60.0882 16.6675
RightHand  -2.72494 7.79157 -23.9865
LeftUpLeg  -6.80287 18.6519 -3.39013
LeftLeg  19.2131 8.26241 2.56547
LeftFoot  8.98108 -0.56504 3.27359
LeftToes  -8.4584e-011 5.90861e-011 8.40072e-012
84
root  -5.09825 39.6261 20.7516 -11.2029 -21.9537 -1.79607
RightUpLeg  -6.42014 -12.0323 -5.4234
RightLeg  63.2641 -4.1131 -9.3489
RightFoot  13.0709 -1.62254 7.95776
RightToes  -5.82094e-011 -1.98785e-016 -5.10186e-018
Spine  19.9903 0.570441 7.27416
Spine1  0.0829111 3.0882 -7.8832
HEad  7.66892 3.99112 1.2393
LeftShoulder1  0.66646 1.14822 -21.8836
LeftArm  -25.2811 34.3252 -52.4907
LeftForeArm  178.143 -80.938 -121.146
LeftHand  -0.406109 -0.459427 8.11614
RightShoulder  3.6568 7.63695 26.8094
RightArm  -0.94555 -9.05544 36.4021
RightForeArm  35.4564 65.2366 21.1635
RightHand  -2.54317 7.6754 -22.6343
LeftUpLeg  -9.37808 9.71653 -0.023063
LeftLeg  10.8476 20.0817 1.91131
LeftFoot  21.8456 1.49724 -5.56897
LeftToes  -8.4584e-011 5.90861e-011 8.40072e-012
85
root  -4.87832 39.8812 18.5143 -8.52246 -23.3869 -2.2796
RightUpLeg  -0.951202 -14.4751 -6.64879
RightLeg  58.4585 -5.69701 -10.3042
RightFoot  15.2955 -1.28137 5.83631
RightToes  -5.82094e-011 -1.98785e-016 -5.10186e-018
Spine  16.442 1.10454 7.20099
Spine1  0.81294 2.87555 -5.35624
HEad  8.23565 4.77032 1.18886
LeftShoulder1  0.720635 0.899159 -21.3817
LeftArm  -22.0344 34.0793 -54.3405
LeftForeArm  -169.151 -78.6869 -136.614
LeftHand  -0.33139 0.442047 7.9041
RightShoulder  3.77265 7.96039 26.9022
RightArm  1.43751 -9.01026 37.4836
RightForeArm  42.62 69.6605 26.3501
RightHand  -2.11672 8.17427 -18.3034
LeftUpLeg  -14.5008 15.5507 1.27781
LeftLeg  13.5439 11.4101 0.747739
LeftFoot  23.6282 4.57443 -15.0118
LeftToes  -8.4584e-011 5.90861e-011 8.40072e-012
86
root  -4.65952 39.713 16.2119 -8.33591 -24.8422 -1.36539
RightUpLeg  5.90521 -16.2871 -10.5064
RightLeg  52.1359 -8.36788 -11.7842
RightFoot  14.4494 -1.40996 6.59746
RightToes  -5.82094e-011 -1.98785e-016 -5.10186e-018
Spine  14.5714 1.15518 5.98523
Spine1  2.32576 2.42043 -4.08739
HEad  6.94959 6.19892 2.04693
LeftShoulder1  1.03546 -0.467389 -19.5436
LeftArm  -19.3941 33.2578 -54.917
LeftForeArm  -159.041 -75.6345 -147.537
LeftHand  -0.37392 1.24091 10.323
RightShoulder  3.78248 7.59714 28.1069
RightArm  2.2136 -7.8952 40.5933
RightForeArm  50.137 73.0176 32.3935
RightHand  -1.47254 8.40191 -12.6496
LeftUpLeg  -18.9559 13.6369 1.88291
LeftLeg  21.8843 -5.78093 -1.95636
LeftFoot  21.9859 3.19865 -11.1248
LeftToes  -8.4584e-011 5.90861e-011 8.40072e-012
87
root  -4.26391 39.2817 13.8441 -9.01458 -29.1796 -0.785405
RightUpLeg  11.6973 -15.176 -13.789
RightLeg  44.1215 -10.1638 -10.6384
RightFoot  12.2084 -1.43905 7.12113
RightToes  -5.82094e-011 -1.98785e-016 -5.10186e-018
Spine  15.6425 0.944277 7.34887
Spine1  2.02835 2.95862 -5.75362
HEad  5.67271 8.86538 1.26278
LeftShoulder1  1.19714 -1.13062 -19.309
LeftArm  -16.3127 32.0772 -52.0976
LeftForeArm  -151.849 -72.4969 -154.442
LeftHand  -0.564105 -0.0574449 12.1251
RightShoulder  4.00094 7.86018 29.2623
RightArm  3.67417 -7.96111 44.0242
RightForeArm  57.6979 76.0581 41.6668
RightHand  -0.879403 7.13437 -8.51322
LeftUpLeg  -19.947 6.04321 6.5217
LeftLeg  29.6436 -10.4238 -5.83512
LeftFoot  20.2357 2.31137 -8.48197
LeftToes  -8.4584e-011 5.90861e-011 8.40072e-012
